<svg xmlns="http://www.w3.org/2000/svg" viewBox="0 0 164 164" fill="none">
  <title>Rementum</title>
  <defs><linearGradient id="rmTealTile" x1="120" y1="150" x2="470" y2="600" gradientUnits="userSpaceOnUse"><stop offset="0" stop-color="#5cc0a8"/><stop offset="1" stop-color="#2e7d64"/></linearGradient></defs>
  <rect width="164" height="164" rx="38" fill="#091514"/>
  <g transform="translate(26,33.88) scale(0.15599)">
    <path d="M15 197C2 203 -3 218 3 232C12 251 35 276 52 284C59 287 75 293 82 295C95 297 95 297 129 333C146 350 163 369 189 398C229 441 235 447 248 454C267 465 273 466 327 466C368 466 370 466 371 464C374 461 374 461 347 432C333 418 318 402 314 397C305 387 273 352 272 350C271 350 268 346 265 342C261 339 247 323 233 308C219 293 204 277 200 272C188 259 170 239 160 229C139 208 126 201 104 198C91 195 19 195 15 197Z M22 378C13 380 2 392 0 401C0 403 0 409 0 413C1 427 6 435 31 461C46 476 77 509 108 541C144 581 163 594 196 606C227 617 228 617 372 617C506 617 501 617 503 611C503 608 503 607 484 587C447 547 425 525 421 522C417 520 417 520 333 520C255 519 248 519 243 518C227 513 210 505 198 495C192 490 185 484 156 452C152 448 142 437 133 428C125 420 113 407 107 400C92 384 87 380 76 378C69 377 27 377 22 378Z" fill="url(#rmTealTile)"/>
    <path d="M15 2C3 8 -1 20 2 40C5 58 25 82 43 90C44 90 46 91 49 92C53 94 63 97 69 99C71 99 155 99 257 99C442 100 443 100 452 102C488 110 512 133 526 172C530 182 530 182 529 200C529 220 529 222 523 237C512 263 490 283 463 293C455 295 455 295 394 296C333 296 333 296 329 300C323 305 321 314 325 322C326 324 332 332 340 340C356 356 375 377 393 396C401 404 414 419 424 429C434 439 447 454 454 461C461 468 473 482 482 491C491 500 502 512 507 518C533 546 567 583 574 590C584 600 593 605 611 611C623 615 630 615 674 615C718 615 719 615 717 610C715 608 694 584 681 570C676 565 664 552 653 539C642 527 629 513 624 508C619 504 606 489 594 476C582 463 569 449 565 445C554 433 516 391 512 387C509 384 509 382 510 381C511 380 517 376 521 374C525 373 542 363 550 357C590 327 620 274 625 224C629 185 622 147 605 110C582 64 537 24 490 10C485 8 478 6 476 5C474 5 465 3 457 2C442 0 433 0 231 0C21 0 21 0 15 2Z" fill="#f3f5f1"/>
  </g>
</svg>
