<svg xmlns="http://www.w3.org/2000/svg" viewBox="0 0 10171 1512" fill="currentColor">
  <g transform="translate(-143.71,1490)"><path d="M143.71142578125 0.0V-1490.0H710.736328125Q881.2802734375 -1490.0 998.96435546875 -1430.0679931640625Q1116.6484375 -1370.135986328125 1177.6285400390625 -1262.0319213867188Q1238.608642578125 -1153.9278564453125 1238.608642578125 -1010.127685546875Q1238.608642578125 -865.4635009765625 1176.9805297851562 -760.0074462890625Q1115.3524169921875 -654.5513916015625 996.4403076171875 -597.6994018554688Q877.5281982421875 -540.847412109375 705.2562255859375 -540.847412109375H309.328369140625V-772.4884033203125H664.7197265625Q762.847412109375 -772.4884033203125 825.4912719726562 -799.8602905273438Q888.1351318359375 -827.232177734375 918.5430908203125 -880.1480102539062Q948.9510498046875 -933.0638427734375 948.9510498046875 -1010.127685546875Q948.9510498046875 -1088.3275146484375 918.5430908203125 -1142.8113403320312Q888.1351318359375 -1197.295166015625 825.207275390625 -1226.2350463867188Q762.2794189453125 -1255.1749267578125 663.583740234375 -1255.1749267578125H426.160888671875V0.0ZM978.111083984375 0.0 616.383056640625 -676.6160888671875H923.696533203125L1293.152587890625 0.0Z M1931.360068359375 22.27197265625Q1762.0159521484375 22.27197265625 1639.3318701171875 -48.21600341796875Q1516.6477880859375 -118.7039794921875 1450.7717504882812 -247.7039794921875Q1384.895712890625 -376.7039794921875 1384.895712890625 -552.592041015625Q1384.895712890625 -725.0240478515625 1450.1357641601562 -855.3760375976562Q1515.3758154296875 -985.72802734375 1634.7079077148437 -1058.864013671875Q1754.04 -1132 1915.1121435546875 -1132.0Q2020.5284033203125 -1132.0 2113.9405126953125 -1098.179931640625Q2207.3526220703125 -1064.35986328125 2278.932639160156 -994.9718017578125Q2350.51265625 -925.583740234375 2391.2166357421875 -819.0157470703125Q2431.920615234375 -712.44775390625 2431.920615234375 -566.5198974609375V-484.17578125H1507.7597265625V-665.55224609375H2295.6079931640625L2166.6792822265625 -613.872314453125Q2166.6792822265625 -705.72802734375 2138.443381347656 -774.3797607421875Q2110.20748046875 -843.031494140625 2054.7356787109375 -881.163330078125Q1999.263876953125 -919.295166015625 1916.8401708984375 -919.295166015625Q1834.41646484375 -919.295166015625 1776.6726904296875 -880.5953369140625Q1718.928916015625 -841.8955078125 1688.7050390625 -776.6517333984375Q1658.481162109375 -711.407958984375 1658.481162109375 -630.3441162109375V-503.855712890625Q1658.481162109375 -401.4560546875 1693.0570288085937 -331.372314453125Q1727.6328955078125 -261.28857421875 1790.2286596679687 -225.8607177734375Q1852.824423828125 -190.432861328125 1935.3841162109375 -190.432861328125Q1990.5839453125 -190.432861328125 2035.7278051757812 -206.19281005859375Q2080.8716650390625 -221.9527587890625 2113.3915625 -253.108642578125Q2145.9114599609375 -284.2645263671875 2163.0233984375 -330.0323486328125L2414.78462890625 -280.3043212890625Q2387.920615234375 -189.3922119140625 2322.0325537109375 -121.28814697265625Q2256.1444921875 -53.18408203125 2157.3003759765625 -15.4560546875Q2058.456259765625 22.27197265625 1931.360068359375 22.27197265625Z M2606.8876171875 0.0V-1118.0H2864.8329296875L2876.6331005859374 -845.53564453125H2856.5850048828124Q2881.3130322265624 -946.4718017578125 2931.893049316406 -1010.2918701171875Q2982.47306640625 -1074.1119384765625 3050.2690869140624 -1104.7599487304688Q3118.065107421875 -1135.407958984375 3192.2251416015624 -1135.407958984375Q3312.92912109375 -1135.407958984375 3387.349104003906 -1059.1119384765625Q3461.7690869140624 -982.81591796875 3494.1372509765624 -830.575439453125H3461.4971142578124Q3485.38517578125 -933.583740234375 3541.4092236328124 -1001.2798461914062Q3597.433271484375 -1068.9759521484375 3674.2292919921874 -1102.1919555664062Q3751.0253125 -1135.407958984375 3837.433271484375 -1135.407958984375Q3938.75333984375 -1135.407958984375 4019.1853466796874 -1091.2479248046875Q4099.617353515625 -1047.087890625 4146.25333984375 -962.3038940429688Q4192.889326171875 -877.5198974609375 4192.889326171875 -754.0V0.0H3916.98380859375V-707.0953369140625Q3916.98380859375 -807.3590087890625 3862.3760205078124 -854.8229370117188Q3807.768232421875 -902.286865234375 3729.864423828125 -902.286865234375Q3669.55265625 -902.286865234375 3625.4208203125 -876.1869506835938Q3581.288984375 -850.0870361328125 3557.621076660156 -803.9431762695312Q3533.9531689453124 -757.79931640625 3533.9531689453124 -696.303466796875V0.0H3265.8237744140624V-717.3192138671875Q3265.8237744140624 -801.6790771484375 3214.6239453125 -851.9829711914062Q3163.4241162109374 -902.286865234375 3082.680341796875 -902.286865234375Q3027.6164990234374 -902.286865234375 2981.9966870117187 -876.7549438476562Q2936.376875 -851.2230224609375 2909.5850048828124 -802.2391967773438Q2882.793134765625 -753.25537109375 2882.793134765625 -681.53564453125V0.0Z M4918.440068359375 22.27197265625Q4749.095952148437 22.27197265625 4626.411870117187 -48.21600341796875Q4503.727788085937 -118.7039794921875 4437.851750488281 -247.7039794921875Q4371.975712890625 -376.7039794921875 4371.975712890625 -552.592041015625Q4371.975712890625 -725.0240478515625 4437.215764160156 -855.3760375976562Q4502.455815429687 -985.72802734375 4621.787907714844 -1058.864013671875Q4741.12 -1132 4902.192143554687 -1132.0Q5007.608403320312 -1132.0 5101.020512695312 -1098.179931640625Q5194.432622070312 -1064.35986328125 5266.012639160156 -994.9718017578125Q5337.59265625 -925.583740234375 5378.296635742187 -819.0157470703125Q5419.000615234375 -712.44775390625 5419.000615234375 -566.5198974609375V-484.17578125H4494.8397265625V-665.55224609375H5282.687993164062L5153.759282226562 -613.872314453125Q5153.759282226562 -705.72802734375 5125.523381347656 -774.3797607421875Q5097.28748046875 -843.031494140625 5041.815678710937 -881.163330078125Q4986.343876953125 -919.295166015625 4903.920170898437 -919.295166015625Q4821.49646484375 -919.295166015625 4763.752690429687 -880.5953369140625Q4706.008916015625 -841.8955078125 4675.7850390625 -776.6517333984375Q4645.561162109375 -711.407958984375 4645.561162109375 -630.3441162109375V-503.855712890625Q4645.561162109375 -401.4560546875 4680.137028808594 -331.372314453125Q4714.712895507812 -261.28857421875 4777.308659667969 -225.8607177734375Q4839.904423828125 -190.432861328125 4922.464116210937 -190.432861328125Q4977.6639453125 -190.432861328125 5022.807805175781 -206.19281005859375Q5067.951665039062 -221.9527587890625 5100.4715625 -253.108642578125Q5132.991459960937 -284.2645263671875 5150.1033984375 -330.0323486328125L5401.86462890625 -280.3043212890625Q5375.000615234375 -189.3922119140625 5309.112553710937 -121.28814697265625Q5243.2244921875 -53.18408203125 5144.380375976562 -15.4560546875Q5045.536259765625 22.27197265625 4918.440068359375 22.27197265625Z M5869.873134765625 -651.855712890625V0.0H5593.9676171875V-1118.0H5855.09701171875L5859.121059570312 -840.5198974609375H5839.7371484375Q5885.121059570312 -983.4237060546875 5975.732998046875 -1057.7118530273438Q6066.344936523437 -1132.0 6205.00912109375 -1132.0Q6320.601162109375 -1132.0 6406.681179199219 -1082.2599487304688Q6492.761196289062 -1032.5198974609375 6540.477199707031 -938.3718872070312Q6588.193203125 -844.223876953125 6588.193203125 -710.864013671875V0.0H6312.287685546875V-666.0555419921875Q6312.287685546875 -775.1832275390625 6255.803859863281 -837.1670532226562Q6199.320034179687 -899.15087890625 6100.032314453125 -899.15087890625Q6033.424526367187 -899.15087890625 5981.304714355469 -869.9829711914062Q5929.18490234375 -840.8150634765625 5899.529018554687 -785.6952514648438Q5869.873134765625 -730.575439453125 5869.873134765625 -651.855712890625Z M7347.457080078125 -1118.0V-904.383056640625H6701.2V-1118ZM6857.967822265625 -1384.0H7133.87333984375V-319.8084716796875Q7133.87333984375 -262.0887451171875 7158.973254394531 -234.932861328125Q7184.073168945312 -207.7769775390625 7241.68095703125 -207.7769775390625Q7259.112963867187 -207.7769775390625 7289.069018554687 -211.99298095703125Q7319.025073242187 -216.208984375 7336.272998046875 -220.208984375L7378.025073242187 -9.8880615234375Q7332.31279296875 4.0 7285.796618652344 9.64801025390625Q7239.280444335937 15.2960205078125 7196.072314453125 15.2960205078125Q7032.496020507812 15.2960205078125 6945.231921386719 -65.30804443359375Q6857.967822265625 -145.912109375 6857.967822265625 -295.872314453125Z M7891.799692382812 14.0Q7776.639658203125 14.0 7690.059641113281 -35.74005126953125Q7603.479624023437 -85.4801025390625 7555.7636206054685 -179.912109375Q7508.0476171875 -274.3441162109375 7508.0476171875 -407.135986328125V-1118.0H7783.953134765625V-451.9444580078125Q7783.953134765625 -342.8167724609375 7840.72095703125 -280.83294677734375Q7897.488779296875 -218.84912109375 7996.776499023437 -218.84912109375Q8063.816293945312 -218.84912109375 8115.436105957031 -248.01702880859375Q8167.05591796875 -277.1849365234375 8196.711801757812 -332.80474853515625Q8226.367685546875 -388.424560546875 8226.367685546875 -466.144287109375V-1118.0H8502.841196289062V0.0H8241.14380859375L8237.68775390625 -277.4801025390625H8256.503671875Q8210.551767578125 -133.4403076171875 8119.3718359375 -59.72015380859375Q8028.191904296875 14.0 7891.799692382812 14.0Z M8729.087617187499 0.0V-1118.0H8987.032929687499L8998.833100585936 -845.53564453125H8978.785004882811Q9003.513032226561 -946.4718017578125 9054.093049316405 -1010.2918701171875Q9104.673066406249 -1074.1119384765625 9172.469086914061 -1104.7599487304688Q9240.265107421874 -1135.407958984375 9314.425141601561 -1135.407958984375Q9435.129121093749 -1135.407958984375 9509.549104003905 -1059.1119384765625Q9583.969086914061 -982.81591796875 9616.337250976561 -830.575439453125H9583.697114257811Q9607.585175781249 -933.583740234375 9663.609223632811 -1001.2798461914062Q9719.633271484374 -1068.9759521484375 9796.429291992186 -1102.1919555664062Q9873.225312499999 -1135.407958984375 9959.633271484374 -1135.407958984375Q10060.953339843749 -1135.407958984375 10141.385346679686 -1091.2479248046875Q10221.817353515624 -1047.087890625 10268.453339843749 -962.3038940429688Q10315.089326171874 -877.5198974609375 10315.089326171874 -754.0V0.0H10039.183808593749V-707.0953369140625Q10039.183808593749 -807.3590087890625 9984.576020507811 -854.8229370117188Q9929.968232421874 -902.286865234375 9852.064423828124 -902.286865234375Q9791.752656249999 -902.286865234375 9747.620820312499 -876.1869506835938Q9703.488984374999 -850.0870361328125 9679.821076660155 -803.9431762695312Q9656.153168945311 -757.79931640625 9656.153168945311 -696.303466796875V0.0H9388.023774414061V-717.3192138671875Q9388.023774414061 -801.6790771484375 9336.823945312499 -851.9829711914062Q9285.624116210936 -902.286865234375 9204.880341796874 -902.286865234375Q9149.816499023436 -902.286865234375 9104.196687011718 -876.7549438476562Q9058.576874999999 -851.2230224609375 9031.785004882811 -802.2391967773438Q9004.993134765624 -753.25537109375 9004.993134765624 -681.53564453125V0.0Z"/></g>
</svg>